HIERARCHY
ROOT Hips
{
 OFFSET 0.000000 0.000000 0.000000
 CHANNELS 6 Xposition Yposition Zposition Yrotation Xrotation Zrotation
 JOINT Chest
 {
  OFFSET 0.000000 9.585900 0.002600
  CHANNELS 3 Yrotation Xrotation Zrotation
  JOINT Chest2
  {
   OFFSET 0.000000 9.601200 -0.005300
   CHANNELS 3 Yrotation Xrotation Zrotation
   JOINT Chest3
   {
    OFFSET 0.000000 9.561800 0.000000
    CHANNELS 3 Yrotation Xrotation Zrotation
    JOINT Chest4
    {
     OFFSET 0.000000 9.552100 0.000000
     CHANNELS 3 Yrotation Xrotation Zrotation
     JOINT Neck
     {
      OFFSET 0.000000 14.453000 0.000000
      CHANNELS 3 Yrotation Xrotation Zrotation
      JOINT Head
      {
       OFFSET 0.000000 8.936500 -0.011300
       CHANNELS 3 Yrotation Xrotation Zrotation
       End Site
       {
        OFFSET 0.000000 17.073600 -0.006000
       }
      }
     }
     JOINT RightCollar
     {
      OFFSET -2.921100 9.558500 0.000000
      CHANNELS 3 Yrotation Xrotation Zrotation
      JOINT RightShoulder
      {
       OFFSET -13.519700 0.000000 0.000000
       CHANNELS 3 Yrotation Xrotation Zrotation
       JOINT RightElbow
       {
        OFFSET 0.000000 -29.696600 0.000000
        CHANNELS 3 Yrotation Xrotation Zrotation
        JOINT RightWrist
        {
         OFFSET 0.000000 -24.004700 0.000000
         CHANNELS 3 Yrotation Xrotation Zrotation
         End Site
         {
          OFFSET 0.000000 -17.728500 0.000000
         }
        }
       }
      }
     }
     JOINT LeftCollar
     {
      OFFSET 2.921100 9.558500 0.000000
      CHANNELS 3 Yrotation Xrotation Zrotation
      JOINT LeftShoulder
      {
       OFFSET 13.519700 0.000000 0.000000
       CHANNELS 3 Yrotation Xrotation Zrotation
       JOINT LeftElbow
       {
        OFFSET 0.000000 -29.696600 0.000000
        CHANNELS 3 Yrotation Xrotation Zrotation
        JOINT LeftWrist
        {
         OFFSET 0.000000 -24.004700 0.000000
         CHANNELS 3 Yrotation Xrotation Zrotation
         End Site
         {
          OFFSET 0.000000 -17.728500 0.000000
         }
        }
       }
      }
     }
    }
   }
  }
 }
 JOINT RightHip
 {
  OFFSET -7.771700 -0.012900 -0.001300
  CHANNELS 3 Yrotation Xrotation Zrotation
  JOINT RightKnee
  {
   OFFSET 0.000000 -40.869800 0.001200
   CHANNELS 3 Yrotation Xrotation Zrotation
   JOINT RightAnkle
   {
    OFFSET 0.000000 -39.717900 0.002100
    CHANNELS 3 Yrotation Xrotation Zrotation
    JOINT RightToe
    {
     OFFSET 0.000000 -4.965400 11.033500
     CHANNELS 3 Yrotation Xrotation Zrotation
     End Site
     {
      OFFSET 0.000000 -1.423100 5.872300
     }
    }
   }
  }
 }
 JOINT LeftHip
 {
  OFFSET 7.771700 -0.012900 -0.001300
  CHANNELS 3 Yrotation Xrotation Zrotation
  JOINT LeftKnee
  {
   OFFSET 0.000000 -40.869800 0.001200
   CHANNELS 3 Yrotation Xrotation Zrotation
   JOINT LeftAnkle
   {
    OFFSET 0.000000 -39.717900 0.002100
    CHANNELS 3 Yrotation Xrotation Zrotation
    JOINT LeftToe
    {
     OFFSET 0.000000 -4.965400 11.033500
     CHANNELS 3 Yrotation Xrotation Zrotation
     End Site
     {
      OFFSET 0.000000 -1.423100 5.872300
     }
    }
   }
  }
 }
}
MOTION
Frames: 16
Frame Time: 0.008333
0.000000 85.388000 0.000000 0.000000 -5.767877 0.000000 0.000000 11.653817 0.000000 0.000000 -5.885947 0.000000 0.000000 -0.000000 0.000000 0.000000 -0.000000 0.000000 0.000000 12.528835 0.000000 0.000000 0.711642 0.000000 0.000000 -0.000000 0.000000 0.000000 0.000000 -90.000000 0.000000 -2.309062 0.000000 0.000000 2.309062 0.000000 0.000000 -0.000000 0.000000 0.000000 -0.000000 90.000000 0.000000 -2.309062 0.000000 0.000000 2.309062 0.000000 0.000000 8.520406 0.000000 0.000000 1.905762 0.000000 -0.000000 -4.658285 0.000000 0.000000 -0.000000 0.000000 0.000000 8.520406 0.000000 0.000000 1.905762 0.000000 -0.000000 -4.658285 0.000000 0.000000 -0.000000 0.000000
-105.584993 49.264445 22.021431 177.750684 -30.305707 -4.162003 -0.070967 18.567006 2.849818 -0.025364 2.158175 0.294012 -0.013883 3.554871 0.466275 0.067721 16.193981 2.255970 2.814838 17.212019 -0.201059 5.152887 -3.754608 -1.159405 -3.596443 -2.410187 -4.502784 -10.344187 -8.304439 -9.293463 -56.312192 -47.799302 89.557376 -0.607119 -2.000835 -15.670702 0.793261 -4.351401 2.627575 -5.070093 -3.405675 14.010030 69.763336 -62.025086 -110.081280 2.767086 8.606088 -1.629232 -7.471671 -53.746171 -7.582275 -146.532158 81.559373 -133.434556 -30.305993 -4.719749 -5.218469 -0.285215 -12.104802 1.636021 -14.059528 -56.245502 19.170972 -73.151888 65.550570 -78.353471 30.753881 6.934832 16.260818 0.053103 -0.464214 0.049396
-105.593286 49.263911 22.018117 177.818369 -30.314383 -4.145952 -0.119516 18.571629 2.793376 -0.025730 2.157007 0.291688 -0.016741 3.549298 0.460921 0.066172 16.194849 2.240791 2.830864 17.217282 -0.182517 5.241674 -3.758150 -1.216213 -3.598925 -2.407653 -4.470571 -10.274934 -8.336256 -9.255676 -56.317991 -47.870663 89.497211 -0.561360 -2.022290 -15.505909 0.798713 -4.317373 2.630645 -5.030970 -3.348514 14.000331 69.751422 -62.016594 -110.054993 2.773806 8.604301 -1.571126 -7.464315 -53.749354 -7.651399 -146.655627 81.545582 -133.597463 -30.306208 -4.716503 -5.186059 -0.281486 -12.102676 1.637448 -14.016270 -56.240212 19.092793 -73.066079 65.545169 -78.306600 30.753842 6.945459 16.307833 0.044669 -0.465416 0.044280
-105.592633 49.263229 22.015916 177.830452 -30.322866 -4.154973 -0.104428 18.569339 2.789374 -0.026200 2.155760 0.289776 -0.019459 3.543702 0.457781 0.062293 16.196066 2.226047 2.862499 17.223129 -0.204755 5.301610 -3.748723 -1.226590 -3.584179 -2.416966 -4.446138 -10.219539 -8.351823 -9.218873 -56.326472 -48.020932 89.572133 -0.624168 -2.027979 -15.443818 0.826893 -4.272414 2.587884 -5.021652 -3.309738 14.035984 69.723809 -62.009963 -109.999306 2.782988 8.599029 -1.510224 -7.481911 -53.747086 -7.633488 -146.660215 81.528864 -133.622333 -30.294164 -4.712086 -5.171865 -0.293538 -12.104432 1.640393 -14.002665 -56.226979 19.105049 -73.065950 65.517004 -78.304622 30.738971 6.939464 16.287854 0.072427 -0.447570 0.058799
-105.594298 49.262131 22.013235 177.849731 -30.332862 -4.152495 -0.086187 18.547904 2.763791 -0.043012 2.170896 0.298246 -0.022485 3.540284 0.455473 0.066312 16.172837 2.164363 2.895238 17.256279 -0.176668 5.351931 -3.728250 -1.233771 -3.578620 -2.404725 -4.377421 -10.159332 -8.368924 -9.182023 -56.321077 -48.081395 89.596671 -0.625495 -2.026772 -15.324239 0.826193 -4.221776 2.633723 -4.995656 -3.269697 14.029728 69.676415 -62.010031 -109.915730 2.794579 8.588545 -1.452560 -7.481053 -53.741989 -7.649119 -146.686541 81.514511 -133.665050 -30.284056 -4.715243 -5.152455 -0.296070 -12.101509 1.637007 -13.969565 -56.216854 19.086947 -73.039063 65.503555 -78.290925 30.734639 6.935858 16.300841 0.075720 -0.438827 0.061339
-105.596956 49.260465 22.010714 177.870729 -30.341539 -4.143452 -0.095678 18.541777 2.736073 -0.039669 2.168242 0.296115 -0.031857 3.548680 0.460502 0.068244 16.161345 2.135912 2.910705 17.274958 -0.171244 5.434046 -3.660976 -1.320148 -3.543188 -2.437195 -4.367340 -10.159711 -8.336124 -9.150985 -56.320535 -48.116330 89.662220 -0.612737 -2.015503 -15.169616 0.839090 -4.194770 2.633665 -4.973085 -3.237467 14.019221 69.625998 -62.017967 -109.820993 2.805011 8.576254 -1.406566 -7.469369 -53.738270 -7.682123 -146.716973 81.504443 -133.704028 -30.282590 -4.723584 -5.153126 -0.294881 -12.094857 1.648101 -13.927537 -56.210961 19.049813 -73.005122 65.491960 -78.270639 30.756056 6.938453 16.317358 0.054062 -0.441681 0.069009
-105.601531 49.257714 22.009160 177.886198 -30.343886 -4.118510 -0.113239 18.537296 2.697612 -0.023221 2.147340 0.277109 -0.046787 3.567669 0.477102 0.069468 16.155338 2.117859 2.927330 17.292652 -0.189862 5.477916 -3.605370 -1.358081 -3.533409 -2.439440 -4.349073 -10.068689 -8.400853 -9.110905 -56.296636 -48.142170 89.633387 -0.596772 -1.998520 -15.018612 0.857447 -4.177710 2.622738 -4.952494 -3.211258 14.005568 69.574664 -62.028312 -109.723632 2.807275 8.566818 -1.373328 -7.430815 -53.747855 -7.738868 -146.757295 81.489769 -133.750880 -30.285221 -4.730811 -5.154207 -0.287885 -12.088761 1.659854 -13.869848 -56.211432 19.000319 -72.939336 65.490969 -78.236187 30.764200 6.939340 16.365428 0.022052 -0.446753 0.065534
-105.601356 49.256156 22.006129 177.902609 -30.360459 -4.120181 -0.122091 18.547308 2.686338 -0.026197 2.150651 0.279678 -0.037661 3.554171 0.461977 0.064668 16.167677 2.129086 2.944455 17.303438 -0.241624 5.489781 -3.574387 -1.345392 -3.465206 -2.503564 -4.383583 -10.028583 -8.413549 -9.054863 -56.275750 -48.175106 89.610062 -0.572129 -1.979747 -14.881646 0.884247 -4.173351 2.591380 -4.932644 -3.194771 13.991056 69.511827 -62.037715 -109.619829 2.801976 8.566456 -1.348688 -7.425945 -53.740794 -7.741074 -146.779625 81.463842 -133.791249 -30.276620 -4.734863 -5.146685 -0.300630 -12.084869 1.676751 -13.849625 -56.195439 18.991390 -72.936774 65.473405 -78.236259 30.755792 6.938534 16.362100 0.039734 -0.437890 0.068576
-105.601996 49.254832 22.002530 177.938266 -30.381626 -4.124618 -0.135442 18.554871 2.669224 -0.025948 2.148716 0.277368 -0.037218 3.550781 0.458240 0.064687 16.162358 2.113392 2.953739 17.331797 -0.249286 5.484140 -3.569964 -1.311119 -3.441435 -2.509471 -4.363705 -9.978883 -8.458347 -9.031032 -56.270074 -48.233093 89.627871 -0.542391 -1.960230 -14.760968 0.881805 -4.149794 2.608878 -4.898273 -3.190517 13.959028 69.444742 -62.045894 -109.513678 2.797336 8.575778 -1.328520 -7.431639 -53.723298 -7.765386 -146.835124 81.453870 -133.858148 -30.279726 -4.735104 -5.139248 -0.299875 -12.086915 1.684064 -13.843636 -56.174457 18.972081 -72.929857 65.458774 -78.234420 30.745418 6.938607 16.355410 0.058109 -0.428579 0.072883
-105.601704 49.252681 22.000730 177.957081 -30.394678 -4.124684 -0.130349 18.551444 2.657866 -0.025834 2.146883 0.275208 -0.011926 3.528881 0.441012 0.042514 16.177215 2.113394 2.963404 17.360605 -0.255825 5.514857 -3.473346 -1.379692 -3.438406 -2.499520 -4.334743 -9.909804 -8.526736 -9.019610 -56.276528 -48.323480 89.658071 -0.508942 -1.945072 -14.659433 0.879017 -4.126275 2.626347 -4.891111 -3.190420 13.953875 69.420348 -62.034290 -109.427894 2.776992 8.592495 -1.359494 -7.428209 -53.714268 -7.784615 -146.886921 81.447464 -133.914025 -30.282193 -4.737531 -5.138544 -0.298750 -12.086880 1.690880 -13.832300 -56.163054 18.962939 -72.912069 65.457465 -78.228207 30.736059 6.939248 16.364699 0.065666 -0.423211 0.070397
-105.601677 49.250228 21.999874 177.965818 -30.404999 -4.116703 -0.089990 18.527954 2.645712 -0.024228 2.144775 0.271892 -0.041193 3.549053 0.451759 0.045119 16.169255 2.095977 2.962384 17.382975 -0.241946 5.534190 -3.408758 -1.439222 -3.438017 -2.493172 -4.309218 -9.841862 -8.597433 -9.016797 -56.300231 -48.450038 89.707285 -0.469767 -1.937677 -14.581413 0.885740 -4.112765 2.622483 -4.862104 -3.199885 13.935487 69.348885 -62.057311 -109.332962 2.791096 8.591832 -1.298923 -7.412465 -53.708998 -7.808594 -146.945778 81.442792 -133.974076 -30.286909 -4.744738 -5.138299 -0.295225 -12.082959 1.695399 -13.812306 -56.153808 18.948700 -72.884454 65.457899 -78.218438 30.739570 6.934754 16.387578 0.057720 -0.417844 0.061317
-105.599953 49.248162 21.999338 177.972504 -30.417698 -4.116776 -0.069635 18.526107 2.644176 -0.022878 2.143256 0.270470 -0.059965 3.559840 0.457354 0.095441 16.137105 2.056779 2.935575 17.417713 -0.202275 5.548233 -3.365685 -1.482080 -3.446614 -2.485200 -4.268719 -9.796800 -8.653530 -9.017807 -56.343038 -48.611432 89.766861 -0.424803 -1.932895 -14.518689 0.851459 -4.090130 2.645778 -4.826596 -3.216380 13.920944 69.284036 -62.080801 -109.250641 2.804736 8.580468 -1.220432 -7.409160 -53.698907 -7.816428 -147.007363 81.441756 -134.036485 -30.292929 -4.750854 -5.135163 -0.290052 -12.080369 1.694956 -13.804125 -56.139280 18.950327 -72.872918 65.447940 -78.214873 30.736682 6.928289 16.393146 0.062977 -0.406740 0.057793
-105.599899 49.246542 21.998629 177.991831 -30.433703 -4.112717 -0.063307 18.529417 2.631773 -0.021411 2.141654 0.269326 -0.060147 3.556538 0.454482 0.080740 16.149094 2.064381 2.950648 17.425170 -0.238368 5.558959 -3.331174 -1.504686 -3.398667 -2.511521 -4.278952 -9.750505 -8.709187 -9.023489 -56.403510 -48.800993 89.830080 -0.376769 -1.927008 -14.461603 0.881562 -4.108407 2.600862 -4.842764 -3.205016 13.952100 69.306316 -62.085807 -109.221283 2.808401 8.571639 -1.151120 -7.403790 -53.685579 -7.842022 -147.048753 81.440255 -134.080451 -30.297588 -4.755153 -5.140912 -0.284124 -12.078723 1.703397 -13.788959 -56.126716 18.922427 -72.863196 65.444504 -78.210043 30.742125 6.928654 16.401325 0.068310 -0.399174 0.047850
-105.597523 49.244851 21.999426 177.999772 -30.444735 -4.117420 -0.055857 18.534348 2.633464 -0.007164 2.134359 0.265983 -0.055456 3.552337 0.452696 0.090878 16.144176 2.058688 2.975938 17.443677 -0.282966 5.553627 -3.305584 -1.496381 -3.325327 -2.556839 -4.277816 -9.753962 -8.724682 -9.034001 -56.477063 -49.008380 89.903245 -0.327498 -1.921133 -14.410490 0.855527 -4.095907 2.612561 -4.832553 -3.211655 13.952001 69.348651 -62.092434 -109.212813 2.811657 8.565259 -1.069631 -7.415333 -53.675150 -7.830918 -147.032449 81.436891 -134.070556 -30.297719 -4.760061 -5.149536 -0.284193 -12.073799 1.714498 -13.787158 -56.116885 18.920168 -72.862506 65.440577 -78.209635 30.749017 6.924782 16.406489 0.063014 -0.393202 0.042891
-105.595690 49.243389 22.000772 178.005156 -30.455105 -4.118954 -0.048052 18.538953 2.632361 0.008353 2.126649 0.264654 -0.025520 3.535465 0.442191 0.110662 16.136164 2.050370 2.973805 17.470520 -0.284920 5.581259 -3.284988 -1.522549 -3.338930 -2.551165 -4.246699 -9.703043 -8.778062 -9.046731 -56.557877 -49.221952 89.983148 -0.276777 -1.913792 -14.361382 0.813259 -4.071553 2.634848 -4.820003 -3.236088 13.949193 69.292800 -62.106264 -109.163974 2.813536 8.532610 -0.961049 -7.419732 -53.668864 -7.824318 -147.038471 81.433307 -134.079922 -30.312594 -4.763388 -5.149202 -0.274724 -12.071925 1.716323 -13.782103 -56.107357 18.915407 -72.859701 65.437489 -78.207545 30.751377 6.919722 16.411032 0.059343 -0.386442 0.039002
-105.593170 49.241839 22.003410 177.999671 -30.460216 -4.121610 -0.011997 18.530041 2.644921 -0.006183 2.132304 0.264943 -0.011488 3.527871 0.437176 0.118505 16.132502 2.045377 3.004712 17.477290 -0.305850 5.644998 -3.270056 -1.571107 -3.343515 -2.549353 -4.232094 -9.614874 -8.851488 -9.063779 -56.638149 -49.427417 90.057455 -0.228309 -1.904149 -14.310076 0.846490 -4.083146 2.617805 -4.811652 -3.292509 13.927363 69.222582 -62.128748 -109.079032 2.828007 8.545596 -0.905917 -7.420832 -53.666623 -7.809858 -146.946017 81.425598 -133.988594 -30.314198 -4.757367 -5.153244 -0.266474 -12.073136 1.718532 -13.777440 -56.102997 18.923742 -72.866751 65.427793 -78.211174 30.753404 6.915722 16.410575 0.060368 -0.380234 0.038674
